<?xml version="1.0" encoding="UTF-8" standalone="no"?>
<!-- Created with Inkscape (http://www.inkscape.org/) -->

<svg
   xmlns:dc="http://purl.org/dc/elements/1.1/"
   xmlns:cc="http://creativecommons.org/ns#"
   xmlns:rdf="http://www.w3.org/1999/02/22-rdf-syntax-ns#"
   xmlns:svg="http://www.w3.org/2000/svg"
   xmlns="http://www.w3.org/2000/svg"
   xmlns:sodipodi="http://sodipodi.sourceforge.net/DTD/sodipodi-0.dtd"
   xmlns:inkscape="http://www.inkscape.org/namespaces/inkscape"
   width="43.98333mm"
   height="12.7mm"
   viewBox="0 0 43.98333 12.7"
   version="1.1"
   id="svg8"
   inkscape:version="0.92.4 (5da689c313, 2019-01-14)"
   sodipodi:docname="shrtlnks_logo.svg">
  <defs
     id="defs2" />
  <sodipodi:namedview
     id="base"
     pagecolor="#ffffff"
     bordercolor="#666666"
     borderopacity="1.0"
     inkscape:pageopacity="0.0"
     inkscape:pageshadow="2"
     inkscape:zoom="1"
     inkscape:cx="80.454973"
     inkscape:cy="-18.243786"
     inkscape:document-units="px"
     inkscape:current-layer="layer1"
     showgrid="false"
     showborder="false"
     inkscape:window-width="1920"
     inkscape:window-height="1017"
     inkscape:window-x="-8"
     inkscape:window-y="-8"
     inkscape:window-maximized="1"
     fit-margin-top="0"
     fit-margin-left="0"
     fit-margin-right="0"
     fit-margin-bottom="0" />
  <metadata
     id="metadata5">
    <rdf:RDF>
      <cc:Work
         rdf:about="">
        <dc:format>image/svg+xml</dc:format>
        <dc:type
           rdf:resource="http://purl.org/dc/dcmitype/StillImage" />
        <dc:title></dc:title>
      </cc:Work>
    </rdf:RDF>
  </metadata>
  <g
     inkscape:label="Layer 1"
     inkscape:groupmode="layer"
     id="layer1"
     transform="translate(391.15622,-38.748189)">
    <g
       aria-label="ShrtLnks"
       style="font-style:normal;font-variant:normal;font-weight:bold;font-stretch:normal;font-size:12.69999981px;line-height:1.25;font-family:'Lobster Two';-inkscape-font-specification:'Lobster Two, Bold';font-variant-ligatures:normal;font-variant-caps:normal;font-variant-numeric:normal;font-feature-settings:normal;text-align:start;letter-spacing:0px;word-spacing:0px;writing-mode:lr-tb;text-anchor:start;fill:#000000;fill-opacity:1;stroke:none;stroke-width:0.26458332"
       id="text12"
       transform="translate(0.00801547,-0.01847513)">
      <path
         d="m -385.79214,40.366864 q 0,0.4826 -0.2159,0.7874 -0.2032,0.2921 -0.5969,0.2921 -0.3556,0 -0.635,-0.2667 0.1778,-0.127 0.2667,-0.3683 0.1016,-0.2413 0.1016,-0.4953 0,-0.3937 -0.254,-0.6477 -0.254,-0.254 -0.7747,-0.254 -0.5715,0 -0.8255,0.3175 -0.254,0.3175 -0.254,0.8509 0,0.6223 0.2921,1.016 0.3048,0.3937 0.7493,0.7112 0.4445,0.3048 0.9525,0.5842 0.5207,0.2794 0.9652,0.6604 0.4445,0.381 0.7366,0.9271 0.3048,0.5334 0.3048,1.3716 0,0.7112 -0.2413,1.2192 -0.2286,0.508 -0.635,0.8382 -0.4064,0.3175 -0.9652,0.4572 -0.5588,0.1524 -1.2192,0.1524 -0.5842,0 -1.1557,-0.127 -0.5588,-0.1143 -1.0033,-0.381 -0.4318,-0.2794 -0.6985,-0.7239 -0.2667,-0.4572 -0.2667,-1.1049 0,-0.4318 0.1143,-0.7874 0.127,-0.3556 0.3302,-0.5969 0.2159,-0.2413 0.4953,-0.3683 0.2794,-0.1397 0.5842,-0.1397 0.1524,0 0.3302,0.0381 0.1778,0.0381 0.3556,0.1397 0.1778,0.0889 0.3302,0.254 0.1524,0.1651 0.2413,0.4064 -0.2286,0 -0.4572,0.0508 -0.2286,0.0508 -0.4191,0.1778 -0.1778,0.127 -0.2921,0.3556 -0.1143,0.2159 -0.1143,0.5588 0,0.6604 0.4064,0.9525 0.4064,0.2794 1.016,0.2794 0.6096,0 0.9398,-0.2921 0.3302,-0.2921 0.3302,-1.0033 0,-0.6604 -0.2794,-1.1176 -0.2667,-0.4572 -0.6858,-0.8001 -0.4191,-0.3429 -0.9017,-0.635 -0.4699,-0.3048 -0.889,-0.6477 -0.4191,-0.3556 -0.6985,-0.8255 -0.2667,-0.4699 -0.2667,-1.1557 0,-1.1049 0.7366,-1.6764 0.7366,-0.5842 2.0066,-0.5842 0.1778,0 0.5334,0.0381 0.3683,0.0254 0.7239,0.1905 0.3683,0.1524 0.635,0.4826 0.2667,0.3175 0.2667,0.889 z"
         style="font-style:normal;font-variant:normal;font-weight:bold;font-stretch:normal;font-size:12.69999981px;font-family:'Lobster Two';-inkscape-font-specification:'Lobster Two, Bold';font-variant-ligatures:normal;font-variant-caps:normal;font-variant-numeric:normal;font-feature-settings:normal;text-align:start;writing-mode:lr-tb;text-anchor:start;fill:#0056b3;fill-opacity:1;stroke:none;stroke-width:0.26458332"
         id="path14"
         inkscape:connector-curvature="0" />
      <path
         d="m -381.03857,44.443564 q 0,-0.762 -0.1651,-1.0795 -0.1651,-0.3175 -0.4826,-0.3175 -0.1905,0 -0.3302,0.1016 -0.127,0.1016 -0.2159,0.2667 -0.0889,0.1651 -0.1397,0.381 -0.0508,0.2032 -0.0635,0.4191 v 4.0767 h -1.8288 v -8.636 l 1.8288,-0.254 v 3.2004 q 0.2921,-0.4445 0.6604,-0.5715 0.3683,-0.1397 0.6985,-0.1397 0.3556,0 0.6731,0.1143 0.3302,0.1143 0.5715,0.3937 0.254,0.2667 0.3937,0.7239 0.1397,0.4445 0.1397,1.1049 0,0.1651 -0.0127,0.4191 0,0.2413 -0.0127,0.4953 -0.0127,0.254 -0.0254,0.4953 0,0.2413 0,0.4064 0,0.5461 0.127,0.8255 0.1397,0.2667 0.5334,0.2667 0.2159,0 0.3556,-0.0762 0.1397,-0.0889 0.2286,-0.2413 0.0889,-0.1524 0.1397,-0.3556 0.0635,-0.2032 0.1143,-0.4445 h 0.5334 q -0.1016,0.762 -0.3048,1.2319 -0.2032,0.4572 -0.4699,0.7112 -0.254,0.2413 -0.5461,0.3302 -0.2921,0.0762 -0.5715,0.0762 -0.9779,0 -1.4224,-0.6477 -0.4318,-0.6477 -0.4318,-1.7272 0,-0.1143 0,-0.3175 0.0127,-0.2159 0.0127,-0.4445 0,-0.2286 0,-0.4445 0.0127,-0.2159 0.0127,-0.3429 z"
         style="font-style:normal;font-variant:normal;font-weight:bold;font-stretch:normal;font-size:12.69999981px;font-family:'Lobster Two';-inkscape-font-specification:'Lobster Two, Bold';font-variant-ligatures:normal;font-variant-caps:normal;font-variant-numeric:normal;font-feature-settings:normal;text-align:start;writing-mode:lr-tb;text-anchor:start;fill:#0056b3;fill-opacity:1;stroke:none;stroke-width:0.26458332"
         id="path16"
         inkscape:connector-curvature="0" />
      <path
         d="m -376.01116,41.941664 v 0.7874 q 0.2794,-0.3302 0.6223,-0.5842 0.3429,-0.2667 0.7493,-0.2667 0.2413,0 0.4318,0.1016 0.2032,0.1016 0.3429,0.2667 0.1524,0.1651 0.2286,0.3683 0.0889,0.1905 0.0889,0.3937 0,0.2794 -0.1778,0.5207 -0.1651,0.2286 -0.5588,0.2286 -0.2921,0 -0.4064,-0.127 -0.1143,-0.127 -0.1778,-0.2667 -0.0635,-0.1524 -0.1397,-0.2794 -0.0635,-0.127 -0.2413,-0.127 -0.1905,0 -0.381,0.1524 -0.1778,0.1397 -0.381,0.3556 v 4.826 h -1.8288 v -6.35 z"
         style="font-style:normal;font-variant:normal;font-weight:bold;font-stretch:normal;font-size:12.69999981px;font-family:'Lobster Two';-inkscape-font-specification:'Lobster Two, Bold';font-variant-ligatures:normal;font-variant-caps:normal;font-variant-numeric:normal;font-feature-settings:normal;text-align:start;writing-mode:lr-tb;text-anchor:start;fill:#0056b3;fill-opacity:1;stroke:none;stroke-width:0.26458332"
         id="path18"
         inkscape:connector-curvature="0" />
      <path
         d="m -371.36014,39.935064 v 2.0066 h 0.762 v 0.508 h -0.762 v 3.81 q 0,0.5334 0.1397,0.7112 0.1524,0.1651 0.5207,0.1651 0.1397,0 0.2159,-0.0254 0.0889,-0.0381 0.1397,-0.0762 0.0127,0.0635 0.0127,0.1397 0,0.0635 0,0.127 0,0.5334 -0.3175,0.8001 -0.3048,0.2667 -0.7747,0.2667 -0.9779,0 -1.3716,-0.5334 -0.3937,-0.5461 -0.3937,-1.4351 v -3.9497 h -0.4064 v -0.508 h 0.4064 v -1.7526 z"
         style="font-style:normal;font-variant:normal;font-weight:bold;font-stretch:normal;font-size:12.69999981px;font-family:'Lobster Two';-inkscape-font-specification:'Lobster Two, Bold';font-variant-ligatures:normal;font-variant-caps:normal;font-variant-numeric:normal;font-feature-settings:normal;text-align:start;writing-mode:lr-tb;text-anchor:start;fill:#0056b3;fill-opacity:1;stroke:none;stroke-width:0.26458332"
         id="path20"
         inkscape:connector-curvature="0" />
      <path
         d="m -366.08565,48.050364 q 0.5207,0.1143 1.0668,0.381 0.5588,0.2667 1.143,0.5461 0.5842,0.2794 1.1811,0.4826 0.6096,0.2159 1.2192,0.2159 0.2413,0 0.4953,-0.0508 0.254,-0.0381 0.508,-0.1524 0.0127,0.0635 0.0127,0.1143 0,0.0508 0,0.1143 0,0.2921 -0.0889,0.5969 -0.0889,0.3175 -0.2667,0.5715 -0.1651,0.254 -0.4318,0.4191 -0.2667,0.1778 -0.6223,0.1778 -0.4064,0 -0.8382,-0.2159 -0.4191,-0.2159 -0.8763,-0.5334 -0.4572,-0.3175 -0.9398,-0.6985 -0.4826,-0.3683 -0.9906,-0.6858 -0.508,-0.3175 -1.0414,-0.5334 -0.5334,-0.2159 -1.0795,-0.2159 -0.0762,0 -0.1524,0 -0.0635,0 -0.1397,0.0127 v -8.7884 q -0.6096,0.2921 -0.9398,0.8509 -0.3175,0.5461 -0.3175,1.3335 0,0.3429 0.0508,0.5969 0.0635,0.2413 0.127,0.4064 0.0762,0.1651 0.1524,0.2794 0.0762,0.1016 0.1143,0.1524 -0.762,0 -1.2065,-0.3556 -0.4445,-0.3556 -0.4445,-1.1176 0,-0.6477 0.3175,-1.2065 0.3175,-0.5588 0.8382,-0.9652 0.5334,-0.4191 1.2065,-0.6477 0.6858,-0.2413 1.4097,-0.2413 0.1397,0 0.2667,0.0127 0.1397,0 0.2667,0.0127 z"
         style="font-style:normal;font-variant:normal;font-weight:bold;font-stretch:normal;font-size:12.69999981px;font-family:'Lobster Two';-inkscape-font-specification:'Lobster Two, Bold';font-variant-ligatures:normal;font-variant-caps:normal;font-variant-numeric:normal;font-feature-settings:normal;text-align:start;writing-mode:lr-tb;text-anchor:start;fill:#007bff;fill-opacity:1;stroke:none;stroke-width:0.26458332"
         id="path22"
         inkscape:connector-curvature="0" />
      <path
         d="m -361.01676,44.456264 q 0,-0.762 -0.1778,-1.0795 -0.1651,-0.3302 -0.4826,-0.3302 -0.1905,0 -0.3302,0.1016 -0.127,0.1016 -0.2159,0.2667 -0.0889,0.1651 -0.1397,0.381 -0.0508,0.2032 -0.0635,0.4191 v 4.0767 h -1.8288 v -6.35 h 1.8288 v 0.6604 q 0.2921,-0.4445 0.6604,-0.5715 0.3683,-0.1397 0.6985,-0.1397 0.3556,0 0.6731,0.1143 0.3302,0.1143 0.5715,0.3937 0.254,0.2667 0.3937,0.7239 0.1397,0.4445 0.1397,1.1049 0,0.1651 -0.0127,0.4191 0,0.2413 -0.0127,0.4953 -0.0127,0.254 -0.0254,0.4953 0,0.2413 0,0.4064 0,0.5461 0.1143,0.8255 0.1143,0.2667 0.508,0.2667 0.4318,0 0.5969,-0.3175 0.1778,-0.3175 0.2794,-0.8001 h 0.5334 q -0.1016,0.762 -0.3048,1.2319 -0.2032,0.4572 -0.4572,0.7112 -0.254,0.2413 -0.5461,0.3302 -0.2921,0.0762 -0.5715,0.0762 -0.9779,0 -1.4224,-0.6477 -0.4318,-0.6477 -0.4318,-1.7272 0,-0.1143 0,-0.3175 0.0127,-0.2159 0.0127,-0.4445 0,-0.2286 0,-0.4318 0.0127,-0.2159 0.0127,-0.3429 z"
         style="font-style:normal;font-variant:normal;font-weight:bold;font-stretch:normal;font-size:12.69999981px;font-family:'Lobster Two';-inkscape-font-specification:'Lobster Two, Bold';font-variant-ligatures:normal;font-variant-caps:normal;font-variant-numeric:normal;font-feature-settings:normal;text-align:start;writing-mode:lr-tb;text-anchor:start;fill:#007bff;fill-opacity:1;stroke:none;stroke-width:0.26458332"
         id="path24"
         inkscape:connector-curvature="0" />
      <path
         d="m -352.70005,41.941664 -2.159,1.7526 q 0.0889,-0.0127 0.1651,-0.0127 0.0889,0 0.1778,0 0.3556,0 0.6858,0.0889 0.3302,0.0762 0.5715,0.2794 0.254,0.1905 0.4064,0.508 0.1524,0.3175 0.1524,0.7874 0,0.1143 -0.0127,0.2921 0,0.1651 -0.0127,0.3429 -0.0127,0.1651 -0.0254,0.3175 0,0.1524 0,0.2413 0,0.2667 0.127,0.4318 0.127,0.1651 0.4953,0.1651 0.2286,0 0.3683,-0.0635 0.1397,-0.0762 0.2286,-0.2032 0.1016,-0.1397 0.1524,-0.3429 0.0635,-0.2159 0.127,-0.508 h 0.5334 q -0.1016,0.7493 -0.3048,1.2192 -0.1905,0.4572 -0.4445,0.7112 -0.254,0.254 -0.5588,0.3429 -0.3048,0.0762 -0.6096,0.0762 -0.4826,0 -0.8255,-0.1397 -0.3429,-0.1397 -0.5715,-0.381 -0.2159,-0.2413 -0.3302,-0.5588 -0.1016,-0.3175 -0.1016,-0.6731 0,-0.1524 0.0127,-0.4318 0.0127,-0.2794 0.0127,-0.508 0,-0.4445 -0.127,-0.7112 -0.1143,-0.2667 -0.5207,-0.2667 -0.3937,0 -0.6096,0.2286 -0.2032,0.2159 -0.3048,0.5334 v 2.8321 h -1.8288 v -8.636 l 1.8288,-0.254 v 4.4704 l 2.0447,-1.9304 z"
         style="font-style:normal;font-variant:normal;font-weight:bold;font-stretch:normal;font-size:12.69999981px;font-family:'Lobster Two';-inkscape-font-specification:'Lobster Two, Bold';font-variant-ligatures:normal;font-variant-caps:normal;font-variant-numeric:normal;font-feature-settings:normal;text-align:start;writing-mode:lr-tb;text-anchor:start;fill:#007bff;fill-opacity:1;stroke:none;stroke-width:0.26458332"
         id="path26"
         inkscape:connector-curvature="0" />
      <path
         d="m -348.28581,41.547964 q 0.3175,1.2319 0.5334,2.0066 0.2159,0.762 0.3429,1.2827 0.127,0.508 0.1778,0.889 0.0508,0.381 0.0508,0.8509 0,0.4953 -0.2032,0.8382 -0.2032,0.3429 -0.5207,0.5588 -0.3048,0.2032 -0.6858,0.3048 -0.381,0.0889 -0.7239,0.0889 -0.5588,0 -0.9779,-0.1778 -0.4191,-0.1778 -0.6985,-0.4445 -0.2794,-0.2794 -0.4191,-0.6096 -0.1397,-0.3429 -0.1397,-0.6477 0,-0.3429 0.127,-0.5842 0.1397,-0.2413 0.3429,-0.3429 0.3683,-0.9525 0.6096,-1.8796 0.254,-0.9398 0.3556,-1.8796 z m -1.7907,4.5847 q 0,0.1905 -0.1143,0.3556 -0.1143,0.1524 -0.3302,0.1524 -0.1016,0 -0.2159,-0.0254 -0.1016,-0.0381 -0.1651,-0.1397 0.1016,0.4445 0.3175,0.6731 0.2286,0.2159 0.6477,0.2159 0.3683,0 0.635,-0.1905 0.2667,-0.2032 0.2667,-0.6985 0,-0.3429 -0.0381,-0.6096 -0.0381,-0.2794 -0.127,-0.6223 -0.0762,-0.3429 -0.2159,-0.8128 -0.127,-0.4699 -0.3175,-1.1811 -0.127,0.6096 -0.3175,1.1811 -0.1778,0.5588 -0.381,1.1684 0.1397,0.0635 0.2413,0.2032 0.1143,0.127 0.1143,0.3302 z"
         style="font-style:normal;font-variant:normal;font-weight:bold;font-stretch:normal;font-size:12.69999981px;font-family:'Lobster Two';-inkscape-font-specification:'Lobster Two, Bold';font-variant-ligatures:normal;font-variant-caps:normal;font-variant-numeric:normal;font-feature-settings:normal;text-align:start;writing-mode:lr-tb;text-anchor:start;fill:#007bff;fill-opacity:1;stroke:none;stroke-width:0.26458332"
         id="path28"
         inkscape:connector-curvature="0" />
    </g>
  </g>
</svg>
